<?xml version="1.0" standalone="no"?>
<!DOCTYPE svg PUBLIC "-//W3C//DTD SVG 1.1//EN" "http://www.w3.org/Graphics/SVG/1.1/DTD/svg11.dtd" >
<svg xmlns="http://www.w3.org/2000/svg">
<metadata>Generated by IcoMoon</metadata>
<defs>
<font id="holberton_school-icon" horiz-adv-x="1024">
<font-face units-per-em="1024" ascent="960" descent="-64" />
<missing-glyph horiz-adv-x="1024" />
<glyph unicode="&#x20;" horiz-adv-x="512" d="" />
<glyph unicode="&#xe900;" glyph-name="arrow_1" d="M512 349.6l348.424 345.52c25.708 25.493 67.388 25.493 93.096 0s25.708-66.826 0-92.32l-394.971-391.68c-25.708-25.493-67.388-25.493-93.096 0l-394.971 391.68c-25.708 25.493-25.708 66.826 0 92.32s67.388 25.493 93.096 0l348.424-345.52z" />
<glyph unicode="&#xe901;" glyph-name="arrow_2" d="M578.239 162.195l375.45 463.617c29.724 36.704 24.163 90.634-12.42 120.456-15.213 12.402-34.218 19.171-53.82 19.171h-750.9c-47.137 0-85.348-38.338-85.348-85.63 0-19.667 6.747-38.734 19.108-53.998l375.45-463.617c29.724-36.704 83.477-42.283 120.060-12.461 4.556 3.714 8.718 7.89 12.42 12.461z" />
<glyph unicode="&#xe902;" glyph-name="arrow_3" d="M370.89 128.678l289.82 320.872-289.82 320.872-7.599-6.864 283.618-314.008-283.618-314.008z" />
<glyph unicode="&#xe903;" glyph-name="arrow_4" d="M653.11 128.678l-289.82 320.872 289.82 320.872 7.599-6.864-283.618-314.008 283.618-314.008z" />
<glyph unicode="&#xe904;" glyph-name="arrow_5" d="M522.24 130.56l460.8 634.88h-921.6z" />
<glyph unicode="&#xe905;" glyph-name="check" d="M511.473 908.8c83.559 0 161.148-21.041 232.77-63.123 69.515-40.68 124.635-95.737 165.361-165.173 42.13-71.54 63.195-149.041 63.195-232.504s-21.065-160.964-63.195-232.504c-40.726-69.436-95.846-124.493-165.361-165.173-71.622-42.082-149.211-63.123-232.77-63.123s-161.148 21.041-232.77 63.123c-69.515 40.68-124.284 95.737-164.308 165.173-42.13 71.54-63.195 149.041-63.195 232.504s21.065 160.964 63.195 232.504c40.024 69.436 94.793 124.493 164.308 165.173 71.622 42.082 149.211 63.123 232.77 63.123zM704.571 687.868c-2.926 0-5.266-1.169-7.022-3.507v0l-265.947-282.301c-2.341-1.753-4.827-2.63-7.461-2.63s-4.827 0.877-6.583 2.63v0l-94.793 94.685c-2.341 1.753-4.827 2.63-7.461 2.63s-4.827-0.877-6.583-2.63v0l-57.929-56.986c-1.755-2.338-2.633-4.822-2.633-7.452s0.878-5.114 2.633-7.452v0l171.349-170.277c1.43-1.039 3.121-1.559 5.071-1.559 2.926 0 5.266 1.169 7.022 3.507v0l337.92 357.699c1.755 2.338 2.633 4.822 2.633 7.452s-1.17 4.822-3.511 6.575v0l-59.685 56.986c-1.755 1.753-4.096 2.63-7.022 2.63z" />
<glyph unicode="&#xe906;" glyph-name="ic_bag" d="M506.874 898.56c61.619 0 115.037-44.094 127.706-103.916l137.262-32.294c3.969-0.932 7.402-3.408 9.553-6.897 2.151-3.476 2.835-7.675 1.899-11.662v0l-10.717-46.027 26.129-0.006c4.909 0 9.487-2.349 12.361-6.274l0.81-1.224 46.373-77.733c1.093-1.99 1.764-4.252 1.889-6.666v0l30.721-602.423c0.211-4.231-1.309-8.363-4.203-11.431-2.916-3.068-6.943-4.806-11.151-4.806v0h-737.266c-4.212 0-8.235 1.742-11.137 4.806-2.898 3.068-4.419 7.204-4.203 11.431v0l30.721 602.423c0.008 0.156 0.018 0.312 0.031 0.467 0.016 0.239 0.041 0.482 0.072 0.724 0.047 0.336 0.1 0.665 0.163 0.989 0.032 0.181 0.070 0.362 0.112 0.543 0.231 0.985 0.555 1.938 0.962 2.844 0.238 0.543 0.515 1.076 0.824 1.596l-0.571-1.060c0.132 0.266 0.272 0.528 0.419 0.785l0.152 0.275 46.079 77.235c2.772 4.657 7.771 7.499 13.171 7.499v0l11.012 0.006-12.452 106.052c-0.936 7.978 4.342 15.245 11.986 16.911l1.46 0.245 172.579 20.519c0.456 1.091 1.045 2.147 1.77 3.144 24.52 33.773 63.957 53.925 105.483 53.925zM830.193 589.623h-646.643l-29.146-571.528h704.934l-29.146 571.528zM622.072 558.733c25.411 0 46.079-20.785 46.079-46.34 0-20.143-12.841-37.322-30.723-43.695l0.002-56.71c0-72.398-58.566-131.296-130.556-131.296s-130.556 58.898-130.556 131.296v0l-0.008 56.714c-17.877 6.376-30.713 23.553-30.713 43.692 0 25.555 20.668 46.34 46.079 46.34s46.079-20.785 46.079-46.34c0-20.14-12.838-37.318-30.717-43.693l-0.004-56.708c0-55.364 44.788-100.405 99.84-100.405s99.84 45.046 99.84 100.405v0l-0.004 56.708c-17.879 6.375-30.717 23.553-30.717 43.693 0 25.555 20.668 46.34 46.079 46.34zM391.676 527.833c-8.469 0-15.358-6.928-15.358-15.445 0-2.814 0.752-5.455 2.065-7.729 2.649 4.623 7.613 7.729 13.293 7.729s10.644-3.107 13.301-7.721c1.305 2.267 2.057 4.907 2.057 7.721 0 8.517-6.889 15.445-15.358 15.445zM622.072 527.833c-8.469 0-15.358-6.928-15.358-15.445 0-2.399 0.546-4.672 1.52-6.7 2.766 4.050 7.404 6.704 12.654 6.704v0h1.183c5.677 0 10.637-3.104 13.295-7.715 1.313 2.264 2.063 4.901 2.063 7.711 0 8.517-6.889 15.445-15.358 15.445zM229.683 666.87l-5.953-0.002-27.647-46.34 39.048 0.006-5.448 46.336zM790.013 666.868l-24.614 0.002-10.783-46.336 63.044-0.006-27.647 46.34zM472.301 819.021l-226.395-26.908 20.16-171.579h74.762l-12.151 50.832c-1.863 7.807 2.523 15.658 9.922 18.215l1.422 0.416 143.368 34.677-11.089 94.347zM579.7 716.186l-217.571-52.612 10.289-43.039h230.144l-22.862 95.652zM570.417 778.003l-7.964-34.2 25.006 6.038c3.485 0.832 7.107 0.426 10.282-1.11l1.332-0.727c3.469-2.141 5.958-5.584 6.912-9.562v0l28.189-117.908h88.904l26.81 115.252-179.47 42.218zM506.869 867.665c-22.046 0-43.323-7.433-60.553-20.621l37.626 4.465c4.063 0.48 8.109-0.679 11.313-3.213s5.269-6.25 5.746-10.318v0l12.463-106.033 15.565 3.768 14.973 64.365c0.811 3.492 2.8 6.573 5.6 8.737l1.248 0.87c3.465 2.154 7.641 2.851 11.605 1.914v0l37.834-8.897c-14.413 38.192-51.422 64.962-93.421 64.962z" />
<glyph unicode="&#xe907;" glyph-name="ic_cart" d="M250 837.12c22.928 0 42.627-15.618 47.893-37.987v0l37.38-159.133h590.405c5.048 0 9.821-2.329 12.928-6.32 3.107-3.985 4.209-9.182 2.985-14.091v0l-59.386-237.936c-5.497-21.983-25.132-37.332-47.739-37.332v0h-429.737l15.439-65.707h397.27c27.13 0 49.2-22.105 49.2-49.28s-22.069-49.28-49.2-49.28v0c10.276-13.738 16.4-30.806 16.4-49.28 0-45.289-36.785-82.133-82-82.133s-82 36.845-82 82.133c0 18.474 6.124 35.542 16.445 49.28v0h-141.129c10.32-13.738 16.445-30.806 16.445-49.28 0-45.289-36.785-82.133-82-82.133s-82 36.845-82 82.133c0 18.474 6.124 35.542 16.445 49.28v0h-32.845c-22.928 0-42.627 15.618-47.893 37.987v0l-122.276 520.52h-59.431c-27.13 0-49.2 22.105-49.2 49.28s22.069 49.28 49.2 49.28v0zM479.599 180.053c-27.13 0-49.2-22.105-49.2-49.28s22.069-49.28 49.2-49.28c27.13 0 49.2 22.105 49.2 49.28s-22.069 49.28-49.2 49.28zM751.838 180.053c-27.13 0-49.2-22.105-49.2-49.28s22.069-49.28 49.2-49.28c27.13 0 49.2 22.105 49.2 49.28s-22.069 49.28-49.2 49.28zM751.838 147.2c9.052 0 16.4-7.36 16.4-16.427s-7.348-16.427-16.4-16.427c-9.052 0-16.4 7.36-16.4 16.427s7.348 16.427 16.4 16.427zM479.599 147.2c9.052 0 16.4-7.36 16.4-16.427s-7.348-16.427-16.4-16.427c-9.052 0-16.4 7.36-16.4 16.427s7.348 16.427 16.4 16.427zM250 804.267h-98.4c-9.046 0-16.4-7.366-16.4-16.427s7.354-16.427 16.4-16.427v0h85.408l128.227-545.84c1.755-7.456 8.322-12.667 15.964-12.667v0h436.239c9.046 0 16.4 7.366 16.4 16.427s-7.354 16.427-16.4 16.427v0h-423.247l-128.227 545.84c-1.755 7.456-8.322 12.667-15.964 12.667v0zM604.239 607.147h-117.542l12.3-98.56h56.042c9.058 0 16.4-7.353 16.4-16.427s-7.342-16.427-16.4-16.427v0h-51.942l12.3-98.56h88.842v49.28c0 9.073 7.342 16.427 16.4 16.427s16.4-7.353 16.4-16.427v0-49.28h88.842l12.3 98.56h-51.942c-9.058 0-16.4 7.353-16.4 16.427s7.342 16.427 16.4 16.427v0h56.042l12.3 98.56h-117.542v-49.28c0-9.073-7.342-16.427-16.4-16.427s-16.4 7.353-16.4 16.427v0 49.28zM470.041 475.733h-96.183l23.152-98.56h85.331l-12.3 98.56zM871.878 475.733h-100.642l-12.3-98.56h75.523c7.547 0 14.094 5.121 15.926 12.455v0l21.493 86.105zM620.639 508.587c9.052 0 16.4-7.36 16.4-16.427s-7.348-16.427-16.4-16.427c-9.052 0-16.4 7.36-16.4 16.427s7.348 16.427 16.4 16.427zM904.672 607.147h-117.036l-12.3-98.56h104.736l24.6 98.56zM453.641 607.147h-110.648l23.146-98.56h99.803l-12.3 98.56z" />
<glyph unicode="&#xe908;" glyph-name="ic_facebook" d="M512 908.8c254.493 0 460.8-206.307 460.8-460.8s-206.307-460.8-460.8-460.8c-254.493 0-460.8 206.307-460.8 460.8s206.307 460.8 460.8 460.8zM622.555 693.76h-69.214c-83.137 0-112.399-41.91-112.399-112.388v-51.87h-51.822v-86.392h51.822v-250.69h103.728v250.7h69.204l9.171 86.392h-78.375l0.118 43.24c0 22.532 2.141 34.606 34.504 34.606h43.264v86.402z" />
<glyph unicode="&#xe909;" glyph-name="ic_hearing" d="M602.153 765.436c58.944-0.384 114.288-22.68 155.837-62.789 41.702-40.262 65.006-94.090 65.611-151.57 0.787-74.51-37.157-143.28-101.496-183.946-26.002-16.435-39.322-46.334-33.134-74.4 2.237-10.162 3.206-20.63 2.88-31.114-1.008-32.227-14.352-62.794-37.574-86.069-23.093-23.15-53.909-37.003-86.765-39.005-2.779-0.173-5.558-0.254-8.328-0.254-35.29 0-69.269 13.651-94.306 38.136-27.178 26.582-38.438 65.779-32.568 113.362 10.882 88.162 0.888 152.789-34.488 223.070-16.766 33.317-20.64 67.502-11.203 98.861 13.349 44.342 41.712 84.163 79.867 112.128 39.336 28.829 86.198 43.891 135.667 43.589zM601.917 728.569c-41.434 0.204-80.736-12.343-113.64-36.459-31.738-23.256-55.306-56.294-66.355-93.019-8.424-27.989 0.149-54.418 8.827-71.659 48.322-95.995 46.402-177.298 38.15-244.162-4.474-36.245 2.846-63.998 21.754-82.488 19.57-19.138 46.752-29.136 74.616-27.442 23.846 1.45 46.19 11.482 62.909 28.243 16.584 16.622 26.112 38.352 26.822 61.186 0.235 7.43-0.451 14.846-2.030 22.027-4.766 21.629-2.443 43.92 6.71 64.474 8.928 20.045 23.702 36.998 42.725 49.022 53.458 33.787 84.984 90.758 84.336 152.395-0.499 47.534-19.805 92.083-54.355 125.438-34.704 33.499-81.038 52.123-130.469 52.443zM308.532 509.653c7.080 7.31 18.754 7.493 26.059 0.413 35.65-34.541 55.282-80.578 55.282-129.629s-19.632-95.088-55.277-129.629c-3.581-3.47-8.208-5.198-12.826-5.198-4.814 0-9.624 1.877-13.238 5.606-7.085 7.31-6.902 18.979 0.408 26.064 28.421 27.538 44.069 64.171 44.069 103.157 0 38.981-15.648 75.614-44.069 103.152-7.31 7.085-7.493 18.754-0.408 26.064zM254.661 457.453c7.080 7.31 18.749 7.498 26.064 0.413 21.307-20.65 33.043-48.149 33.043-77.429 0-29.285-11.736-56.784-33.043-77.434-3.581-3.466-8.208-5.194-12.826-5.194-4.819 0-9.624 1.877-13.238 5.606-7.085 7.31-6.902 18.979 0.408 26.064 14.083 13.642 21.835 31.738 21.835 50.957 0 19.214-7.752 37.31-21.835 50.952-7.31 7.085-7.493 18.754-0.408 26.064zM199.999 419.332c7.224 7.176 18.893 7.138 26.069-0.082 20.083-20.213 20.083-53.098 0-73.31-3.6-3.624-8.338-5.438-13.075-5.438-4.699 0-9.398 1.781-12.994 5.357-7.219 7.176-7.258 18.845-0.082 26.064 5.846 5.885 5.846 15.461 0 21.346-7.176 7.219-7.138 18.893 0.082 26.064zM600.645 678.143c73.272 0 132.883-58.018 132.883-129.331 0-10.181-8.256-18.432-18.437-18.432-10.176 0-18.432 8.251-18.432 18.432 0 50.986-43.070 92.467-96.014 92.467-45.557 0-83.808-30.72-93.59-71.774 11.789-0.442 23.458-3.384 33.95-8.746 27.566-14.083 44.77-43.862 42.802-74.107-1.934-29.77-22.397-57.029-50.918-67.838-2.15-0.811-4.358-1.2-6.528-1.2-7.44 0-14.448 4.536-17.242 11.904-3.605 9.518 1.186 20.16 10.704 23.77 15.254 5.779 26.184 20.15 27.202 35.755 1.022 15.773-8.136 31.402-22.786 38.89-9.835 5.021-22.109 6.134-32.837 2.981-5.573-1.637-11.592-0.557-16.243 2.923s-7.392 8.952-7.392 14.76v0 0.216c0 71.314 59.611 129.331 132.878 129.331z" />
<glyph unicode="&#xe90a;" glyph-name="ic_instagram" d="M512 908.8c254.493 0 460.8-206.307 460.8-460.8s-206.307-460.8-460.8-460.8c-254.493 0-460.8 206.307-460.8 460.8s206.307 460.8 460.8 460.8zM530.995 693.75h-38.016c-49.64-0.060-58.808-0.406-82.292-1.475-26.163-1.198-44.022-5.34-59.649-11.418-16.164-6.277-29.876-14.674-43.536-28.339-13.671-13.66-22.067-27.372-28.365-43.531-6.093-15.632-10.24-33.495-11.418-59.649-1.075-24.030-1.422-33.075-1.473-85.827v-31.028c0.049-52.747 0.389-61.767 1.478-85.797 1.203-26.163 5.345-44.022 11.418-59.649 6.282-16.164 14.679-29.876 28.345-43.536 13.655-13.671 27.367-22.088 43.52-28.365 15.637-6.078 33.501-10.22 59.659-11.418 24.576-1.118 33.47-1.445 89.478-1.481h23.698c56.014 0.036 64.889 0.363 89.466 1.481 26.163 1.198 44.043 5.34 59.679 11.418 16.159 6.277 29.85 14.695 43.505 28.365 13.671 13.66 22.067 27.372 28.365 43.531 6.042 15.632 10.189 33.495 11.418 59.649 1.178 26.215 1.485 34.571 1.485 101.316s-0.307 75.121-1.485 101.336c-1.229 26.163-5.376 44.022-11.418 59.649-6.298 16.164-14.695 29.876-28.365 43.536-13.671 13.671-27.341 22.067-43.52 28.339-15.667 6.078-33.536 10.22-59.7 11.418-23.484 1.069-32.628 1.414-82.277 1.475zM489.976 649.533v-0.061c6.543 0.010 13.845 0 22.047 0l19.070-0.009c48.409-0.052 57.083-0.352 80.239-1.404 23.962-1.096 36.967-5.1 45.63-8.463 11.469-4.454 19.646-9.779 28.242-18.381 8.602-8.602 13.927-16.794 18.391-28.263 3.364-8.653 7.373-21.658 8.463-45.62 1.076-23.666 1.382-32.208 1.427-83.502l-0.003-34.837c-0.055-48.388-0.372-57.065-1.424-80.217-1.096-23.962-5.1-36.967-8.463-45.62-4.454-11.469-9.79-19.635-18.391-28.232-8.602-8.602-16.768-13.927-28.242-18.381-8.653-3.379-21.668-7.373-45.63-8.469-23.703-1.077-32.234-1.383-83.765-1.428h-31.089c-51.534 0.044-60.061 0.35-83.764 1.428-23.962 1.106-36.967 5.11-45.635 8.474-11.469 4.454-19.661 9.779-28.263 18.381s-13.927 16.773-18.391 28.247c-3.364 8.653-7.373 21.658-8.463 45.62-1.002 22.049-1.322 30.97-1.395 73.594v51.448c0.073 42.615 0.393 51.506 1.395 73.555 1.096 23.962 5.1 36.967 8.463 45.63 4.454 11.469 9.79 19.661 18.391 28.263s16.794 13.927 28.263 18.391c8.663 3.379 21.673 7.373 45.635 8.474 22.672 1.024 31.458 1.331 77.262 1.382zM512.020 574.208c-69.696-0.001-126.206-56.511-126.206-126.21s56.51-126.184 126.209-126.184c69.699 0 126.189 56.484 126.189 126.184 0 68.659-54.821 124.52-123.082 126.172l-3.11 0.038zM512.023 529.918c45.241 0 81.921-36.675 81.921-81.921 0-45.241-36.68-81.921-81.921-81.921-45.246 0-81.921 36.68-81.921 81.921 0 45.246 36.675 81.921 81.921 81.921zM643.209 608.675v-0.010c-16.282 0-29.492-13.194-29.492-29.481 0-16.282 13.21-29.492 29.492-29.492s29.492 13.21 29.492 29.492c0 16.282-13.21 29.492-29.492 29.492z" />
<glyph unicode="&#xe90b;" glyph-name="ic_laptop" d="M905.092 837.12c15.692 0 28.457-12.708 28.457-28.33v0-507.905l78.62-154.377c0.037-0.074 0.061-0.15 0.096-0.224 0.206-0.42 0.392-0.851 0.557-1.294v0l0.143-0.386c0.169-0.488 0.312-0.987 0.427-1.499v0l0.043-0.164c0.12-0.556 0.204-1.124 0.257-1.703v0l0.022-0.437c0.020-0.3 0.047-0.601 0.047-0.909v0-37.124c0-18.554-15.161-33.647-33.798-33.647v0h-935.924c-18.638 0-33.798 15.093-33.798 33.647v0 37.124c0 0.308 0.027 0.609 0.047 0.913v0l0.022 0.435c0.053 0.58 0.137 1.147 0.257 1.705 0.012 0.053 0.029 0.105 0.041 0.158 0.116 0.511 0.261 1.013 0.427 1.502v0l0.143 0.388c0.167 0.441 0.351 0.872 0.557 1.292v0l0.096 0.224 78.618 154.379v507.901c0 15.622 12.765 28.33 28.457 28.33v0zM984.36 125.259h-944.72v-22.49c0-2.414 1.974-4.379 4.398-4.379v0h935.924c2.425 0 4.398 1.965 4.398 4.379v0 22.49zM909.821 282.756h-795.644l-65.303-128.229h322.967l16.211 58.517c3.299 11.91 14.273 20.23 26.685 20.23v0h194.522c12.413 0 23.385-8.32 26.685-20.232v0l16.211-58.515h322.969l-65.303 128.229zM607.952 204.005h-191.904l-13.706-49.479h219.316l-13.706 49.479zM904.151 807.848h-784.302v-495.825h784.302v495.825zM858.091 535.548c8.12 0 14.702-6.554 14.702-14.634v0-154.721c0-12.656-10.341-22.948-23.052-22.948v0h-675.481c-12.713 0-23.052 10.295-23.052 22.948v0 154.721c0 8.084 6.58 14.634 14.7 14.634s14.7-6.55 14.7-14.634v0-148.401h662.782v148.401c0 8.084 6.58 14.634 14.7 14.634zM849.739 776.628c12.713 0 23.052-10.291 23.052-22.948v0-154.721c0-8.084-6.58-14.634-14.7-14.634s-14.7 6.55-14.7 14.634v0 148.401h-662.782v-148.401c0-8.084-6.58-14.634-14.7-14.634s-14.7 6.55-14.7 14.634v0 154.721c0 12.656 10.341 22.948 23.052 22.948v0z" />
<glyph unicode="&#xe90c;" glyph-name="ic_money" d="M506.88 898.56c234.326 0 424.96-177.786 424.96-396.288v0-117.419c0-202.327-190.634-366.933-424.96-366.933s-424.96 164.606-424.96 366.933v0 117.419c0 218.502 190.634 396.288 424.96 396.288zM443.924 110.358v-58.709c15.456-2.143 31.212-3.493 47.218-4.037v0 58.738c-15.975 0.544-31.73 1.851-47.218 4.008v0zM569.836 110.358c-15.488-2.159-31.243-3.464-47.218-4.008v0-58.738c16.006 0.544 31.761 1.894 47.218 4.037v0zM365.227 128.705v-58.71c15.314-5.093 31.053-9.393 47.218-12.828v0 58.798c-16.102 3.419-31.872 7.661-47.218 12.74v0zM648.533 128.705c-15.346-5.079-31.116-9.321-47.218-12.74v0-58.798c16.165 3.435 31.903 7.735 47.218 12.828v0zM286.53 163.533v-57.549h-1.101c15.361-9.013 31.509-17.085 48.319-24.188v0 58.709c-16.29 6.796-32.091 14.443-47.218 23.029v0zM727.23 163.52c-15.126-8.586-30.928-16.22-47.218-23.029v0-58.695c16.808 7.104 32.957 15.177 48.319 24.188v0h-1.101zM207.835 221.024v-55.215c14.418-14.472 30.188-27.902 47.218-40.114v0 57.608c-16.714 11.509-32.501 24.116-47.218 37.721v0zM805.925 221.024c-14.717-13.621-30.503-26.215-47.218-37.721v0-57.608c17.030 12.212 32.8 25.642 47.218 40.114v0zM506.88 868.075c-216.305 0-392.269-164.078-392.269-365.803s175.964-365.818 392.269-365.818c216.305 0 392.269 164.091 392.269 365.803s-175.964 365.818-392.269 365.818zM506.88 807.090c180.246 0 326.904-136.719 326.904-304.818s-146.657-304.834-326.904-304.834c-180.246 0-326.904 136.75-326.904 304.834s146.657 304.818 326.904 304.818zM115.927 346.993l0.803-5.655c7.662-50.835 28.573-98.12 59.625-139.306v0 50.725c0 0.22 0.125 0.411 0.142 0.647-24.537 28.268-45.030 59.708-60.564 93.597l-0.006-0.008zM897.827 346.985c-15.534-33.875-36.028-65.315-60.564-93.583 0.017-0.22 0.142-0.409 0.142-0.645v0-50.725c32.202 42.697 53.498 91.984 60.422 144.953zM506.88 776.621c-162.224 0-294.198-123.069-294.198-274.349s131.974-274.364 294.198-274.364c162.224 0 294.198 123.1 294.198 274.364s-131.974 274.349-294.198 274.349zM506.895 694.295c8.687 0 15.739-6.56 15.739-14.677v0-21.223c53.498-2.114 88.989-15.088 110.694-40.597 5.399-6.342 4.266-15.573-2.549-20.607-6.83-5.064-16.714-3.992-22.113 2.377-10.041 11.801-29.889 27.124-86.047 29.546v0-115.070c111.325-23.645 115.951-75.838 114.485-91.777-3.667-39.966-50.868-70.48-114.487-75.735v0-21.605c0-8.117-7.051-14.677-15.739-14.677s-15.739 6.56-15.739 14.677v0 21.003c-54.568 1.438-79.75 11.037-109.639 39.717-6.059 5.798-5.917 15.103 0.315 20.754 6.218 5.65 16.196 5.518 22.255-0.294 22.38-21.457 38.892-29.501 87.085-30.807v0 113.382c-74.809 7.411-107.972 46.615-107.358 84.218 0.629 39.204 37.632 79.258 107.358 85.173v0 21.546c0 8.117 7.051 14.677 15.739 14.677zM522.619 483.939v-107.804c49.798 4.785 81.152 27.183 83.135 48.626 1.701 18.641-19.641 44.252-83.135 59.178v0zM491.141 628.35c-49.169-5.093-75.469-30.661-75.879-55.905-0.378-23.454 23.341-47.847 75.879-54.027v0z" />
<glyph unicode="&#xe90d;" glyph-name="ic_music" d="M774.758 615.793v112.558c0 5.284-2.58 10.322-6.758 13.394-4.301 3.072-9.83 4.055-14.868 2.458l-335.34-106.537c-6.881-2.212-11.551-8.602-11.551-15.852v-328.212c-17.572 12.165-40.059 18.801-63.652 18.801-24.945 0-48.66-7.496-66.724-21.012-19.415-14.623-30.106-34.406-30.106-55.91s10.691-41.288 30.106-55.91c18.063-13.517 41.656-21.012 66.724-21.012s48.66 7.496 66.724 21.012c19.415 14.623 30.106 34.406 30.106 55.91v261.489l302.162 96.092v-192.43c-17.572 12.165-40.059 18.801-63.652 18.801-24.945 0-48.66-7.496-66.724-21.012-19.415-14.623-30.106-34.406-30.106-55.91s10.691-41.288 30.106-55.91c18.063-13.517 41.656-21.012 66.724-21.012s48.66 7.496 66.724 21.012c19.415 14.623 30.106 34.406 30.106 55.91v273.162c0 0.123 0 0.123 0 0.123zM342.589 191.735c-34.529 0-63.652 20.029-63.652 43.745s29.123 43.745 63.652 43.745c34.529 0 63.652-20.029 63.652-43.745 0-23.839-29.123-43.745-63.652-43.745zM439.419 531.866v77.906l302.162 95.969v-77.906l-302.162-95.969zM678.052 298.763c-34.529 0-63.652 20.029-63.652 43.745s29.123 43.745 63.652 43.745c34.529 0 63.652-20.029 63.652-43.745-0.123-23.716-29.245-43.745-63.652-43.745z" />
<glyph unicode="&#xe90e;" glyph-name="ic_sound" d="M471.134 785.92c11.876 0 21.504-9.628 21.504-21.504v0-626.249c0-11.876-9.628-21.504-21.504-21.504s-21.504 9.628-21.504 21.504v0 626.249c0 11.876 9.628 21.504 21.504 21.504zM554.917 732.593c11.876 0 21.504-9.625 21.504-21.504v0-519.598c0-11.876-9.628-21.504-21.504-21.504s-21.504 9.628-21.504 21.504v0 519.598c0 11.876 9.628 21.504 21.504 21.504zM387.355 636.876c11.876 0 21.504-9.628 21.504-21.504v0-328.163c0-11.876-9.628-21.504-21.504-21.504s-21.504 9.628-21.504 21.504v0 328.163c0 11.876 9.628 21.504 21.504 21.504zM638.696 625.939c11.876 0 21.504-9.628 21.504-21.504v0-306.288c0-11.876-9.628-21.504-21.504-21.504s-21.504 9.628-21.504 21.504v0 306.288c0 11.876 9.628 21.504 21.504 21.504zM303.569 573.977c11.879 0 21.504-9.625 21.504-21.504v0-202.368c0-11.876-9.628-21.504-21.504-21.504s-21.504 9.628-21.504 21.504v0 202.368c0 11.876 9.628 21.504 21.504 21.504zM722.482 561.676c11.876 0 21.504-9.628 21.504-21.504v0-177.758c0-11.876-9.628-21.504-21.504-21.504s-21.504 9.628-21.504 21.504v0 177.758c0 11.876 9.628 21.504 21.504 21.504zM219.789 538.427c11.876 0 21.504-9.628 21.504-21.504v0-131.267c0-11.876-9.628-21.504-21.504-21.504s-21.504 9.628-21.504 21.504v0 131.267c0 11.876 9.628 21.504 21.504 21.504zM806.265 534.323c11.876 0 21.504-9.628 21.504-21.504v0-123.061c0-11.876-9.628-21.504-21.504-21.504s-21.504 9.628-21.504 21.504v0 123.061c0 11.876 9.628 21.504 21.504 21.504zM52.224 508.343c11.876 0 21.504-9.625 21.504-21.504v0-71.101c0-11.876-9.628-21.504-21.504-21.504s-21.504 9.628-21.504 21.504v0 71.101c0 11.876 9.628 21.504 21.504 21.504zM136.007 508.343c11.879 0 21.504-9.625 21.504-21.504v0-71.101c0-11.876-9.628-21.504-21.504-21.504s-21.504 9.628-21.504 21.504v0 71.101c0 11.876 9.628 21.504 21.504 21.504zM890.044 508.343c11.876 0 21.504-9.625 21.504-21.504v0-71.101c0-11.876-9.628-21.504-21.504-21.504s-21.504 9.628-21.504 21.504v0 71.101c0 11.876 9.628 21.504 21.504 21.504zM973.824 508.343c11.876 0 21.504-9.625 21.504-21.504v0-71.101c0-11.876-9.628-21.504-21.504-21.504s-21.504 9.628-21.504 21.504v0 71.101c0 11.876 9.628 21.504 21.504 21.504z" />
<glyph unicode="&#xe90f;" glyph-name="ic_twitter" d="M512 908.8c254.493 0 460.8-206.307 460.8-460.8s-206.307-460.8-460.8-460.8c-254.493 0-460.8 206.307-460.8 460.8s206.307 460.8 460.8 460.8zM561.052 627.972c-40.29-14.643-65.753-52.39-62.852-93.716l0.967-15.945-16.116 1.952c-58.662 7.484-109.911 32.866-153.424 75.493l-21.273 21.151-5.479-15.619c-11.604-34.818-4.19-71.589 19.984-96.319 12.893-13.667 9.992-15.619-12.248-7.484-7.736 2.603-14.504 4.556-15.149 3.579-2.256-2.278 5.479-31.889 11.604-43.604 8.38-16.27 25.463-32.215 44.158-41.652l15.794-7.484-18.695-0.325c-18.050 0-18.695-0.325-16.761-7.159 6.446-21.151 31.91-43.604 60.274-53.366l19.984-6.833-17.405-10.413c-25.786-14.969-56.084-23.429-86.382-24.080-14.504-0.325-26.43-1.627-26.43-2.603 0-3.254 39.323-21.477 62.208-28.635 68.654-21.151 150.201-12.040 211.442 24.080 43.513 25.707 87.026 76.795 107.333 126.256 10.959 26.358 21.918 74.517 21.918 97.621 0 14.969 0.967 16.921 19.017 34.818 10.637 10.413 20.628 21.802 22.562 25.056 3.223 6.183 2.901 6.183-13.537 0.651-27.397-9.762-31.265-8.46-17.728 6.183 9.992 10.413 21.918 29.286 21.918 34.818 0 0.976-4.835-0.651-10.314-3.579-5.802-3.254-18.695-8.135-28.364-11.064l-17.405-5.532-15.794 10.738c-8.703 5.857-20.951 12.365-27.397 14.318-16.438 4.556-41.579 3.905-56.406-1.302z" />
<glyph unicode="&#xe910;" glyph-name="ic_video" d="M721.798 837.12c37.896 0 71.712-25.368 82.236-61.686v0l26.34-90.93c1.134-3.912 0.666-8.112-1.302-11.682-1.968-3.564-5.268-6.21-9.18-7.344v0l-503.346-145.812h524.040c8.484 0 15.36-6.876 15.36-15.36v0-368.136c0-47.136-38.346-85.482-85.482-85.482v0h-184.572c-8.478 0-15.36 6.876-15.36 15.36s6.882 15.36 15.36 15.36v0h184.572c30.198 0 54.762 24.564 54.762 54.762v0 209.028h-601.542v-209.028c0-30.198 24.564-54.762 54.762-54.762v0h184.566c8.484 0 15.36-6.876 15.36-15.36s-6.876-15.36-15.36-15.36v0h-184.572c-47.13 0-85.476 38.346-85.476 85.482v0 365.958l-25.734 88.836c-6.33 21.852-3.738 44.934 7.302 64.98 11.046 20.046 29.16 34.578 51.018 40.908v0l472.59 136.902c7.716 2.232 15.672 3.366 23.658 3.366zM524.452 81.408c8.466 0 15.36-6.9 15.36-15.36s-6.894-15.36-15.36-15.36c-8.46 0-15.36 6.9-15.36 15.36s6.9 15.36 15.36 15.36zM472.678 306.078c4.752 2.742 10.608 2.742 15.36 0v0l134.946-77.91c4.752-2.742 7.68-7.812 7.68-13.302s-2.928-10.56-7.68-13.302v0l-134.946-77.904c-2.376-1.374-5.028-2.064-7.68-2.064s-5.304 0.69-7.68 2.064c-4.752 2.742-7.68 7.812-7.68 13.296v0 155.82c0 5.49 2.928 10.56 7.68 13.302zM495.718 266.172v-102.612l88.866 51.306-88.866 51.306zM719.884 488.946h-84.882l-65.262-113.028h84.888l65.256 113.028zM599.524 488.946h-84.882l-65.262-113.028h84.888l65.256 113.028zM479.17 488.946h-84.888l-65.256-113.028h84.882l65.262 113.028zM358.81 488.946h-135.126v-113.028h69.87l65.256 113.028zM825.226 488.946h-69.87l-65.256-113.028h135.126v113.028zM243.124 669.96l-9.024-2.616c-13.98-4.050-25.578-13.362-32.658-26.22-7.080-12.864-8.754-27.642-4.704-41.616v0l22.068-76.17 135.618 39.288-109.284 104.964c-0.762 0.732-1.434 1.53-2.016 2.37v0zM358.732 703.446l-81.882-23.718 109.284-104.964c0.762-0.732 1.44-1.53 2.016-2.37v0l81.882 23.718-109.284 104.964c-0.768 0.738-1.44 1.53-2.016 2.37v0zM474.334 736.932l-81.882-23.718 109.284-104.964c0.768-0.732 1.44-1.53 2.016-2.37v0l81.882 23.724-109.284 104.958c-0.762 0.738-1.434 1.536-2.016 2.37v0zM589.942 770.424l-81.882-23.718 109.284-104.964c0.768-0.732 1.44-1.53 2.016-2.37v0l81.882 23.718-109.284 104.964c-0.768 0.738-1.44 1.53-2.016 2.37v0zM721.798 806.4c-5.094 0-10.176-0.726-15.108-2.154v0l-83.022-24.054 109.278-104.958c0.768-0.738 1.44-1.53 2.022-2.37v0l61.626 17.85-22.068 76.17c-6.744 23.268-28.422 39.516-52.728 39.516z" />
<glyph unicode="&#xe911;" glyph-name="menu" d="M798.72 243.2c22.622 0 40.96-18.338 40.96-40.96s-18.338-40.96-40.96-40.96h-655.36c-22.622 0-40.96 18.338-40.96 40.96s18.338 40.96 40.96 40.96h655.36zM593.92 488.96c22.622 0 40.96-18.338 40.96-40.96s-18.338-40.96-40.96-40.96h-450.56c-22.622 0-40.96 18.338-40.96 40.96s18.338 40.96 40.96 40.96h450.56zM880.64 734.72c22.622 0 40.96-18.338 40.96-40.96s-18.338-40.96-40.96-40.96h-737.28c-22.622 0-40.96 18.338-40.96 40.96s18.338 40.96 40.96 40.96h737.28z" />
<glyph unicode="&#xe912;" glyph-name="search_1" d="M757.76 278.267c-2.731 3.32-4.233 7.193-4.506 11.62s0.683 8.577 2.867 12.45c37.683 59.206 56.525 124.221 56.525 195.048 0 65.293-16.111 125.882-48.333 181.768-31.676 54.226-74.274 97.385-127.795 129.478-54.614 32.646-114.142 48.969-178.586 48.969s-124.245-16.323-179.405-48.969c-53.521-32.093-96.119-75.252-127.795-129.478-32.222-55.886-48.333-116.475-48.333-181.768s16.111-125.882 48.333-181.768c31.676-54.226 74.274-97.385 127.795-129.478 55.16-32.646 114.961-48.969 179.405-48.969 37.137 0 73.455 5.81 108.954 17.43 28.672 9.683 55.637 22.633 80.896 38.848l14.95 10.121c3.277 2.767 7.236 4.012 11.878 3.735 3.482-0.207 6.426-1.271 8.832-3.19l132.378-134.017 13.21-11.775 14.746-15.77c2.731-2.767 6.281-4.15 10.65-4.15s7.919 1.383 10.65 4.15l52.429 53.119c2.731 2.767 4.096 6.363 4.096 10.79s-1.365 8.023-4.096 10.79l-159.744 161.018zM670.558 339.215c-11.46-15.257-24.557-29.152-39.292-41.685-24.012-20.706-51.025-36.644-81.040-47.815s-61.394-16.756-94.137-16.756c-49.115 0-94.682 12.26-136.703 36.781-41.475 23.976-74.218 56.669-98.23 98.082-24.558 41.957-36.836 87.456-36.836 136.497s12.279 94.54 36.836 136.497c24.012 41.413 56.755 74.106 98.23 98.082 42.021 24.521 87.588 36.781 136.703 36.781s94.682-12.26 136.703-36.781c40.929-23.976 73.399-56.669 97.411-98.082 24.558-41.957 36.836-87.456 36.836-136.497 0-30.515-4.911-59.803-14.734-87.865s-23.739-53.809-41.748-77.24z" />
<glyph unicode="&#xe913;" glyph-name="search_2" d="M895.386 38.4c7.1 0 13.244 2.594 18.432 7.782s7.782 11.332 7.782 18.432c0 7.1-2.458 13.107-7.373 18.022l-212.173 208.077c28.399 31.13 50.517 65.809 66.355 104.038 15.838 39.322 23.757 80.555 23.757 123.699 0 61.713-15.838 118.784-47.514 171.213-30.037 51.337-71.27 92.023-123.699 122.061-53.521 30.583-111.548 45.875-174.080 45.875s-120.559-15.292-174.080-45.875c-51.883-30.037-93.116-70.724-123.699-122.061-31.13-52.429-46.694-109.5-46.694-171.213s15.565-118.784 46.694-171.213c30.583-51.337 71.817-92.023 123.699-122.061 53.521-30.583 111.684-45.875 174.49-45.875 39.868 0 78.916 6.827 117.146 20.48 36.045 12.561 69.359 30.857 99.942 54.886l212.173-208.896c5.461-4.915 11.742-7.373 18.842-7.373zM447.283 231.731c-52.975 0-102.127 13.107-147.456 39.322-43.691 25.122-78.37 59.255-104.038 102.4-26.761 44.783-40.141 93.116-40.141 144.998s13.38 100.215 40.141 144.998c25.668 43.145 60.348 77.278 104.038 102.4 45.329 26.214 94.345 39.322 147.046 39.322s101.717-13.107 147.046-39.322c44.237-25.122 79.189-59.255 104.858-102.4 26.761-44.783 40.141-93.116 40.141-144.998s-13.38-100.215-40.141-144.998c-25.668-43.145-60.621-77.278-104.858-102.4-45.329-26.214-94.208-39.322-146.637-39.322z" />
<glyph unicode="&#xe914;" glyph-name="star" d="M512 158.111l-284.79-150.431 54.39 318.619-230.4 225.647 318.405 46.486 142.395 289.889 142.395-289.889 318.405-46.486-230.4-225.647 54.39-318.619z" />
</font>
</defs>
</svg>
